/* XPM */
static char *ccdda39c72b5461b87c42e38347d1bf1qwvFXtaofk83hlYl[] = {
/* columns rows colors chars-per-pixel */
"26 31 39 1 ",
"  c None",
". c #2E1E22",
"X c #760000",
"o c #5C2E00",
"O c #4D3B39",
"+ c #534721",
"@ c #444444",
"# c #565657",
"$ c #77584A",
"% c #705654",
"& c #6D6D6E",
"* c #767678",
"= c #AD0000",
"- c #FF2627",
"; c #964F00",
": c #8B5E4A",
"> c #9D704C",
", c #A77E5D",
"< c #8F7772",
"1 c #C79D00",
"2 c #E3B700",
"3 c #FFD600",
"4 c #D7906E",
"5 c #1A5586",
"6 c #286E9F",
"7 c #288DCB",
"8 c #858587",
"9 c #9F8781",
"0 c #928A8C",
"q c #979799",
"w c #B89D92",
"e c #B7A099",
"r c #B7B7BB",
"t c #EEBE93",
"y c #FFE1AF",
"u c gray85",
"i c #D9D9DD",
"p c gray95",
"a c white",
/* pixels */
"         OOOO   OOOO      ",
"    OOOOOO%<%OOO%<O       ",
"     O%<<eO%<<%<<OOOOOO   ",
"    OOO%%<e<%e<<%%e<%O    ",
"   O%<<<<<<<<<e<<e<%OOO   ",
"    OO%<<e<<<<<<<<<<<<%O  ",
"   O%<<<e<%<<<<e<<<e<%<%O ",
"  O%<<%%<%<e<%ee<X<<e<OOOO",
" O%<O=X<%=<e<%e<%=%<e%<O  ",
"  OOX-=%=-<<<=<<=-X<<O%%O ",
"  O%X=XX=-%<%-<%--=<%+O%O ",
" O%%=-%%<%%%%y%yyyt%t+ O  ",
" O%=--%<<%%%<yy+++ytt+    ",
" OO---<<<yt<<yyu.iyyt+    ",
" O---=<<<y>t<yyp.0yyt+    ",
" X---=<<%t>y<yyaooyy4+    ",
" ---=%%<%+4t<yyy;;yt>+    ",
"X---=%%%%%44tyyyyyt4+     ",
"=XX-O%O%O%>44ttt44>+      ",
"===X O O O**+++++++       ",
" ==     *riiaaaiir*       ",
"       *riririaaa21+      ",
"     **riiqr*@ia63+       ",
"    **rria##ww+763@       ",
"   ***rria&9,,,+:8@       ",
"   **rrria+$,,,+5#@       ",
"   **r*ria&+$::+#1+       ",
"    ***ria31+++31::+      ",
"     **rria,99++:::+      ",
"      ***ri*,+  +++       ",
"         **++             "
};
