/* XPM */
static char *_96eee8ffa8041b9dcd8b5733c1dcbf7yBZqV0B3PnuhmYXq[] = {
/* columns rows colors chars-per-pixel */
"32 32 6 1 ",
"  c #6E5967",
". c #AD707B",
"X c #B77F83",
"o c #C39490",
"O c #D1B1A5",
"+ c #DCCABE",
/* pixels */
"                                ",
"oOOOooooooooooo. .oooOoOOOOOoooo",
"oooooooooooooooo ooooooooooooooo",
"oooooooo..o.oo   ooooooooooooooo",
"oooooooOoOOooooX ooooooooooooooo",
"oooooooooooooooo ooooooooooooooo",
"oooooooooooooooo ooooooooooooooo",
"ooooooooooooooo. .oooooooooooooo",
"                                ",
" .oooOoOO+++OoOOooooooooooooooo.",
" ooooooooooooooooooooooooooooooo",
" ooooooooooooooooooooooooooooooo",
" ooooooooooooooooooooooooooooooX",
" oooooooooooooooooooooo..o.o    ",
" ooooooooooooooooooooooooOoOOooo",
" .ooooooooooooooooooooooooooooo.",
"                                ",
"ooooooooooooooo. .oooOoOOO+++OOo",
"oooooooooooooooo ooooooooooooooo",
"ooooo...oo.oo    ooooooooooooooo",
"ooooooOoooOOoOoX ooooooooooooooo",
"oooooooooooooooo ooooooooooooooo",
"oooooooooooooooo ooooooooooooooo",
"ooooooooooooooo. .oooooooooooooo",
"                                ",
" .ooooOO++OooOooooooooooooooooo.",
" ooooooooooooooooooooooooooooooo",
" oooooooooooooooooooo.o.....oo  ",
" oooooooooooooooooooooOoOOOooooX",
" ooooooooooooooooooooooooooooooo",
" ooooooooooooooooooooooooooooooo",
" .ooooooooooooooooooooooooooooo."
};
